PathFileType	4	(X/Y/Z)	OpenSim_Sub10_CSBaseline_Accel.trc
DataRate	CameraRate	NumFrames	NumMarkers	Units	OrigDataRate	OrigDataStartFrame	OrigNumFrames
100	100	27	8	m	100	7973	9111
Frame#	Time	torso_imu_offset_imu	pelvis_imu_offset_imu	tibia_r_imu_offset_imu	femur_r_imu_offset_imu	tibia_l_imu_offset_imu	femur_l_imu_offset_imu	toes_r_imu_offset_imu	toes_l_imu_offset_imu
				X1	Y1	Z1	X2	Y2	Z2	X3	Y3	Z3	X4	Y4	Z4	X5	Y5	Z5	X6	Y6	Z6	X7	Y7	Z7	X8		Y8	Z8	

7973	79.72000000	8.12297585	0.75304076	6.45974525	8.73121189	-0.13418642	2.52616257	8.92128818	5.39660953	1.11905298	7.45518856	-2.03398850	1.71053015	9.67542068	0.67289437	0.39172333	8.40179903	2.90053445	-1.81406373	17.94332689	1.34338588	10.63879473	5.21027640	0.48975483	10.89784115
7974	79.73000000	7.94271346	0.80258650	6.44508784	8.77177342	-0.14120733	2.65568432	9.18187663	2.69300547	1.50715758	7.81466002	-2.41537172	1.82161088	9.73692363	1.17034222	0.12410472	8.48366240	2.57427350	-1.88562682	17.52388841	2.34013323	8.80188569	5.49927010	0.47096561	10.87330553
7975	79.74000000	7.77336517	0.77636918	6.49631398	8.89062393	-0.08135244	2.69975435	10.26784879	0.28816109	1.42472239	8.13494491	-2.92006261	1.87123813	9.93225214	1.38485821	0.24192342	8.66998827	2.45709190	-2.02626027	17.23798676	2.80559599	7.21513332	5.57720646	0.48969378	10.79073153
7976	79.75000000	8.08225690	0.95398373	6.88809440	9.07679704	-0.06280985	2.65122391	11.80774192	-0.89431561	0.91681253	8.29395220	-3.47125087	1.87954963	10.16381558	1.64434189	0.12538649	8.50401997	2.39237251	-2.11870878	17.06251101	3.01951246	6.02844632	4.89074402	0.50718539	11.16133924
7977	79.76000000	8.45199499	0.94435954	6.89093219	9.22059191	-0.05659548	2.63000715	13.05019740	-1.04134041	0.08282148	8.29129290	-3.94528955	1.87296827	10.10033016	1.66249994	0.06160649	8.67613934	2.20858609	-2.30136592	16.87899457	2.38928331	5.02956651	4.94667288	0.62830473	11.26886907
7978	79.77000000	8.54829799	0.87506358	6.93800631	9.46201185	-0.09597741	2.66675410	13.54971945	-0.62103345	-0.51156538	8.27009452	-4.44656251	1.73828211	10.29624796	1.51427638	0.13456468	8.83879126	2.23906653	-2.46613728	16.66757866	2.26615462	4.40478871	5.22888284	0.63553001	11.05838562
7979	79.78000000	8.37537954	0.88457467	6.92054040	9.58532766	-0.15436883	2.72989610	13.34180524	-0.05973554	-0.27710157	8.38415862	-4.77558644	1.52877900	10.45371534	0.83320427	0.29711360	9.13300652	2.14422814	-2.65512712	16.23597642	1.60522502	3.22487316	5.12853534	0.51423894	11.00847938
7980	79.79000000	8.45948789	0.91715978	6.91075541	9.62502532	-0.15776799	2.73539136	12.77849961	0.23282173	0.43979155	8.51227456	-5.07752476	1.38745129	10.63994978	0.33277124	0.19984954	9.25678896	1.98828663	-2.75824218	15.51515913	1.18194732	1.84401129	5.16234828	0.52469243	11.22768306
7981	79.80000000	8.73494742	0.90712897	6.91880581	9.75824314	-0.09946561	2.70179779	12.01263466	0.31411687	1.24090636	8.71772509	-5.48585807	1.28522915	10.82253455	-0.08905865	0.07563796	9.21932277	1.87206349	-2.76834051	15.12697517	1.06266674	0.90584576	4.77080325	0.49482986	11.51458971
7982	79.81000000	9.04260282	0.90155765	6.96888324	9.90986144	-0.14364700	2.60943382	10.95305002	0.48714862	1.83755809	8.91790532	-5.70250001	1.19486000	10.77376873	-0.45767562	0.02259816	9.42380184	2.05483271	-2.91169980	15.37038334	1.48172302	0.51382751	4.96066876	0.41975874	11.32511827
7983	79.82000000	9.37137576	0.83734723	6.97096282	10.01574658	-0.21665496	2.48029655	9.92170639	0.85984744	2.08967098	9.08445295	-5.93970732	1.06591516	10.57903917	-0.60579274	-0.05206887	9.60052646	1.82460825	-2.91517699	15.63174819	2.08943471	0.51755706	5.06233042	0.44326610	11.45323908
7984	79.83000000	9.65440563	0.69923740	6.86151795	10.06693382	-0.26391558	2.16699431	9.08000868	1.29693837	1.89319397	9.19847542	-6.06580802	1.04944913	10.38226940	-0.65932496	-0.14435978	9.74992405	2.01492426	-3.09649293	15.51279593	1.65182121	0.22962592	5.38925865	0.25948580	11.34776387
7985	79.84000000	9.68348276	0.71010597	6.92225415	10.09426555	-0.29791469	1.93725717	8.81585270	1.88054431	1.30223916	9.22925523	-6.08209151	0.96732858	10.14695307	-0.46364546	-0.34292112	9.63943166	1.97392625	-3.10869351	14.86531443	0.94672796	-0.21621002	4.87493462	0.36596549	11.54525883
7986	79.85000000	9.63382486	0.74013305	6.89394573	10.06415893	-0.40108601	1.63834597	9.16879924	2.49944542	0.77485652	9.06874943	-5.96452266	0.97206159	10.08394012	-0.28855624	-0.59322201	9.65824819	1.93246111	-2.95703416	13.92088239	1.12486638	-0.43005898	5.22325146	0.29184555	11.39449751
7987	79.86000000	9.53337254	0.78199081	6.89561782	9.98719166	-0.48775671	1.43472885	9.54222839	2.62302569	0.28960916	8.78140557	-5.88392206	1.02450509	10.28083633	-0.20510359	-0.58634003	9.69055244	1.78215034	-2.85600414	12.78266840	1.68957992	-0.30792062	5.30724788	0.98622974	11.36535032
7988	79.87000000	9.58222860	0.73587537	6.82241294	10.01955460	-0.63175057	1.27809551	9.26225590	2.34317066	0.06927093	8.37618943	-5.87651981	1.13705239	10.23366877	-0.53781430	-0.10256457	9.22196675	1.59439823	-2.64981033	12.03419616	2.07608829	0.36092244	5.44848941	1.08063362	11.26127918
7989	79.88000000	9.75081481	0.63875797	6.79130802	10.11843194	-0.84180263	1.11324383	8.48283915	2.14540629	0.36340659	8.07323195	-5.87254841	1.03501977	10.22095118	-0.75065697	0.42235549	9.45671366	1.67293952	-2.75257131	11.68119831	2.92453651	1.90500974	5.26413432	0.35478081	11.33753290
7990	79.89000000	9.84490088	0.58810446	6.78870566	10.22175401	-0.95245332	0.98459385	7.89452706	2.27060045	0.74968484	7.47290427	-5.82338068	0.66348849	10.45488699	-1.06412507	1.06748455	9.57476024	1.57952252	-2.77417868	9.45390151	-0.13608968	2.39974593	5.27439054	0.35911969	11.44641987
7991	79.90000000	9.69613453	0.55798437	6.86840670	10.36031002	-1.12513581	1.06030567	7.73989983	2.80737481	0.95284312	7.05981831	-5.39492903	0.32637476	10.58808066	-1.14104899	1.32014345	9.66104562	1.69847785	-2.83385896	3.62399533	-8.42853851	-3.35108260	5.47945941	-0.12182478	11.22217957
7992	79.91000000	9.65328547	0.59173781	6.94748592	10.56436291	-1.16154869	1.66693047	7.87927108	3.71150933	0.70451710	6.72173434	-4.98758330	0.28184862	10.93053629	-1.09726383	1.25584647	9.91686349	1.89714040	-2.89476512	-0.88528313	10.57732410	11.54476735	5.49316029	-0.06612342	11.30141783
7993	79.92000000	9.71797527	0.63727540	7.11172380	10.90207218	-0.90560913	2.34268278	8.94452469	3.96618582	-0.36687961	7.07390835	-4.44192431	0.52979339	11.41171934	-0.93325119	1.69140057	9.66852118	2.38969168	-2.96737732	-2.51443075	5.10030397	12.91759476	5.50343813	-0.29595292	11.46984776
7994	79.93000000	10.01320884	0.63049605	7.43395837	11.30895366	-0.58196217	2.77089761	11.15007592	2.05411897	1.25791701	8.48876459	-4.10945466	0.85734267	11.34553606	-0.68159432	2.08422293	10.35605319	2.79752290	-2.82872719	1.31220648	5.67324454	10.27143903	5.17420922	-0.27233163	11.78569313
7995	79.94000000	10.37847257	0.60521424	7.71647802	11.63704326	-0.12452274	3.10210572	13.47649464	-2.56371184	5.83649398	10.59977201	-4.39291900	0.85577312	11.49263111	-0.24596562	1.97498220	10.63097102	3.25109008	-2.63672593	8.13200419	9.95108215	12.97839019	5.04454729	0.17605211	11.72474213
7996	79.95000000	10.44704349	0.45500416	7.91966526	11.85643446	0.52412665	3.42684903	15.22740869	-8.98536977	7.19421847	12.48078420	-5.06848595	0.53842507	11.76907230	0.38828112	1.92275742	10.72970157	3.45361286	-2.46265102	10.35341024	5.03456991	12.21254002	5.32665583	0.43613852	11.54459724
7997	79.96000000	10.49038587	0.23911149	7.90755664	11.99122272	1.28351059	3.72973338	15.80546481	-11.87850303	5.98216833	13.92181108	-5.40473721	0.37140172	11.92279405	0.65934706	2.48747049	10.71510340	3.70983897	-2.26685209	12.22901549	0.07898229	11.92587015	5.36554173	0.62396994	11.74744652
7998	79.97000000	10.54687530	0.27795175	7.84085178	12.16306920	2.06995053	3.90823271	14.53700171	-9.12198378	4.16569107	14.63046781	-4.97826796	0.28408839	11.83831075	0.44934470	2.66458672	10.55585211	3.62632784	-2.12129549	14.30295538	-6.13390717	10.72624680	4.94088716	0.93570703	12.06969504
7999	79.98000000	10.64491922	0.40943396	7.83927754	12.05975809	2.60643629	3.82827806	11.92889454	-3.38230485	3.51495420	14.45344575	-4.28485628	0.53881034	11.83437320	0.29148069	2.57904974	10.41236076	3.59747088	-1.96975579	18.55491966	-5.51724661	12.82456655	5.20921004	0.59922664	11.49492994
